<svg width="170" height="37" viewBox="0 0 170 37" fill="none" xmlns="http://www.w3.org/2000/svg">
<path d="M13.6658 18.1378C18.5328 18.1378 22.4783 14.1894 22.4783 9.31892C22.4783 4.44836 18.5328 0.5 13.6658 0.5C8.79876 0.5 4.85327 4.44836 4.85327 9.31892C4.85327 14.1894 8.79876 18.1378 13.6658 18.1378Z" fill="#0F1013"/>
<path d="M29.5027 12.5142C31.948 12.5142 33.9303 10.5305 33.9303 8.08344C33.9303 5.6364 31.948 3.65268 29.5027 3.65268C27.0575 3.65268 25.0752 5.6364 25.0752 8.08344C25.0752 10.5305 27.0575 12.5142 29.5027 12.5142Z" fill="#0F1013"/>
<path d="M4.42754 25.5934C6.87279 25.5934 8.85507 23.6098 8.85507 21.1626C8.85507 18.7156 6.87279 16.7319 4.42754 16.7319C1.98228 16.7319 0 18.7156 0 21.1626C0 23.6098 1.98228 25.5934 4.42754 25.5934Z" fill="#0F1013"/>
<path d="M28.3959 33.3047C33.4745 33.3047 37.5915 29.1846 37.5915 24.1023C37.5915 19.02 33.4745 14.8999 28.3959 14.8999C23.3172 14.8999 19.2002 19.02 19.2002 24.1023C19.2002 29.1846 23.3172 33.3047 28.3959 33.3047Z" fill="#0F1013"/>
<path d="M12.6867 36.5C15.7432 36.5 18.2211 34.0203 18.2211 30.9615C18.2211 27.9027 15.7432 25.4231 12.6867 25.4231C9.63007 25.4231 7.15222 27.9027 7.15222 30.9615C7.15222 34.0203 9.63007 36.5 12.6867 36.5Z" fill="#0F1013"/>
<path d="M60.4928 18.0516C61.6731 18.3032 62.6212 18.8933 63.3371 19.822C64.053 20.7314 64.4109 21.7763 64.4109 22.9566C64.4109 24.6593 63.8111 26.0137 62.6115 27.0198C61.4312 28.0066 59.7769 28.5 57.6485 28.5H48.1579V8.12567H57.3293C59.3996 8.12567 61.0152 8.59972 62.1761 9.54781C63.3564 10.4959 63.9466 11.7826 63.9466 13.4079C63.9466 14.6075 63.6273 15.604 62.9888 16.3973C62.3696 17.1906 61.5376 17.742 60.4928 18.0516ZM53.1209 16.3683H56.3715C57.1841 16.3683 57.8033 16.1941 58.229 15.8459C58.674 15.4782 58.8965 14.9461 58.8965 14.2496C58.8965 13.553 58.674 13.0209 58.229 12.6533C57.8033 12.2857 57.1841 12.1019 56.3715 12.1019H53.1209V16.3683ZM56.7778 24.4948C57.6098 24.4948 58.2483 24.311 58.6933 23.9433C59.1577 23.5564 59.3899 23.0049 59.3899 22.289C59.3899 21.5731 59.148 21.012 58.6643 20.6057C58.1999 20.1993 57.5518 19.9962 56.7198 19.9962H53.1209V24.4948H56.7778ZM81.685 20.1413C81.685 20.6057 81.656 21.0894 81.5979 21.5925H70.3659C70.4433 22.5986 70.7626 23.3726 71.3237 23.9143C71.9041 24.4367 72.6104 24.698 73.4424 24.698C74.6807 24.698 75.5417 24.1755 76.0254 23.1307H81.3077C81.0368 24.1949 80.5434 25.1527 79.8275 26.004C79.1309 26.8553 78.2506 27.5229 77.1864 28.0066C76.1222 28.4903 74.9322 28.7322 73.6165 28.7322C72.0299 28.7322 70.6174 28.3936 69.3791 27.7164C68.1408 27.0392 67.1733 26.0717 66.4768 24.814C65.7802 23.5564 65.432 22.0859 65.432 20.4025C65.432 18.7192 65.7706 17.2487 66.4478 15.991C67.1443 14.7333 68.1118 13.7659 69.3501 13.0887C70.5884 12.4114 72.0106 12.0728 73.6165 12.0728C75.1838 12.0728 76.5769 12.4018 77.7959 13.0596C79.0148 13.7175 79.9629 14.6559 80.6401 15.8749C81.3367 17.0939 81.685 18.516 81.685 20.1413ZM76.6059 18.8353C76.6059 17.9839 76.3157 17.3067 75.7352 16.8036C75.1547 16.3006 74.4292 16.049 73.5585 16.049C72.7265 16.049 72.0202 16.2909 71.4398 16.7746C70.8787 17.2583 70.5304 17.9452 70.3949 18.8353H76.6059ZM82.4457 20.3735C82.4457 18.7095 82.7553 17.2487 83.3744 15.991C84.013 14.7333 84.874 13.7659 85.9575 13.0887C87.0411 12.4114 88.2504 12.0728 89.5854 12.0728C90.727 12.0728 91.7235 12.305 92.5748 12.7694C93.4455 13.2338 94.1131 13.8433 94.5774 14.5979V12.305H99.5404V28.5H94.5774V26.2072C94.0937 26.9618 93.4165 27.5713 92.5458 28.0356C91.6944 28.5 90.698 28.7322 89.5564 28.7322C88.2407 28.7322 87.0411 28.3936 85.9575 27.7164C84.874 27.0198 84.013 26.0427 83.3744 24.785C82.7553 23.508 82.4457 22.0375 82.4457 20.3735ZM94.5774 20.4025C94.5774 19.1642 94.2291 18.1871 93.5326 17.4712C92.8554 16.7553 92.0234 16.3973 91.0366 16.3973C90.0498 16.3973 89.2081 16.7553 88.5116 17.4712C87.8344 18.1677 87.4958 19.1352 87.4958 20.3735C87.4958 21.6118 87.8344 22.5986 88.5116 23.3339C89.2081 24.0498 90.0498 24.4077 91.0366 24.4077C92.0234 24.4077 92.8554 24.0498 93.5326 23.3339C94.2291 22.618 94.5774 21.6408 94.5774 20.4025ZM101.273 20.4025C101.273 18.7192 101.612 17.2487 102.289 15.991C102.986 14.7333 103.944 13.7659 105.163 13.0887C106.401 12.4114 107.813 12.0728 109.4 12.0728C111.432 12.0728 113.125 12.6049 114.479 13.6691C115.853 14.7333 116.752 16.2328 117.178 18.1677H111.896C111.451 16.9294 110.59 16.3102 109.313 16.3102C108.403 16.3102 107.678 16.6682 107.136 17.3841C106.594 18.0807 106.323 19.0868 106.323 20.4025C106.323 21.7182 106.594 22.734 107.136 23.45C107.678 24.1465 108.403 24.4948 109.313 24.4948C110.59 24.4948 111.451 23.8756 111.896 22.6373H117.178C116.752 24.5335 115.853 26.0233 114.479 27.1069C113.105 28.1904 111.412 28.7322 109.4 28.7322C107.813 28.7322 106.401 28.3936 105.163 27.7164C103.944 27.0392 102.986 26.0717 102.289 24.814C101.612 23.5564 101.273 22.0859 101.273 20.4025ZM126.334 28.7322C124.747 28.7322 123.316 28.3936 122.039 27.7164C120.781 27.0392 119.785 26.0717 119.049 24.814C118.333 23.5564 117.975 22.0859 117.975 20.4025C117.975 18.7385 118.343 17.2777 119.078 16.02C119.814 14.743 120.82 13.7659 122.097 13.0887C123.374 12.4114 124.806 12.0728 126.392 12.0728C127.979 12.0728 129.411 12.4114 130.688 13.0887C131.965 13.7659 132.971 14.743 133.706 16.02C134.441 17.2777 134.809 18.7385 134.809 20.4025C134.809 22.0665 134.432 23.537 133.677 24.814C132.942 26.0717 131.926 27.0392 130.63 27.7164C129.353 28.3936 127.921 28.7322 126.334 28.7322ZM126.334 24.4367C127.282 24.4367 128.085 24.0885 128.743 23.3919C129.42 22.6953 129.759 21.6989 129.759 20.4025C129.759 19.1061 129.43 18.1097 128.772 17.4131C128.134 16.7166 127.34 16.3683 126.392 16.3683C125.425 16.3683 124.622 16.7166 123.983 17.4131C123.345 18.0903 123.025 19.0868 123.025 20.4025C123.025 21.6989 123.335 22.6953 123.954 23.3919C124.593 24.0885 125.386 24.4367 126.334 24.4367ZM146.439 12.1309C148.335 12.1309 149.844 12.75 150.967 13.9884C152.108 15.2073 152.679 16.8907 152.679 19.0384V28.5H147.745V19.706C147.745 18.6224 147.465 17.7807 146.903 17.1809C146.342 16.5811 145.588 16.2812 144.64 16.2812C143.692 16.2812 142.937 16.5811 142.376 17.1809C141.815 17.7807 141.534 18.6224 141.534 19.706V28.5H136.571V12.305H141.534V14.4527C142.037 13.7368 142.714 13.1757 143.566 12.7694C144.417 12.3437 145.375 12.1309 146.439 12.1309ZM161.845 28.7322C160.433 28.7322 159.175 28.4903 158.072 28.0066C156.969 27.5229 156.099 26.865 155.46 26.033C154.822 25.1817 154.464 24.2336 154.386 23.1887H159.291C159.349 23.7499 159.611 24.2046 160.075 24.5528C160.539 24.9011 161.11 25.0753 161.787 25.0753C162.407 25.0753 162.881 24.9592 163.209 24.727C163.558 24.4754 163.732 24.1562 163.732 23.7692C163.732 23.3048 163.49 22.9662 163.006 22.7534C162.523 22.5212 161.739 22.2697 160.655 21.9988C159.495 21.7279 158.527 21.4473 157.753 21.1571C156.979 20.8475 156.312 20.3735 155.751 19.735C155.189 19.0771 154.909 18.1967 154.909 17.0939C154.909 16.1651 155.16 15.3234 155.663 14.5688C156.186 13.7949 156.94 13.1854 157.927 12.7404C158.933 12.2953 160.123 12.0728 161.497 12.0728C163.529 12.0728 165.125 12.5759 166.286 13.582C167.466 14.5882 168.143 15.9233 168.318 17.5873H163.732C163.655 17.0261 163.403 16.5811 162.977 16.2522C162.571 15.9233 162.029 15.7588 161.352 15.7588C160.772 15.7588 160.327 15.8749 160.017 16.1071C159.707 16.3199 159.553 16.6198 159.553 17.0068C159.553 17.4712 159.794 17.8194 160.278 18.0516C160.781 18.2838 161.555 18.516 162.6 18.7482C163.8 19.0578 164.777 19.3673 165.531 19.6769C166.286 19.9672 166.944 20.4509 167.505 21.1281C168.085 21.786 168.385 22.676 168.405 23.7982C168.405 24.7463 168.134 25.5977 167.592 26.3523C167.07 27.0875 166.305 27.668 165.299 28.0937C164.312 28.5193 163.161 28.7322 161.845 28.7322Z" fill="#0F1013"/>
</svg>
