<?xml version="1.0" encoding="utf-8"?>
<svg xmlns="http://www.w3.org/2000/svg" xmlns:xlink="http://www.w3.org/1999/xlink" width="163" height="48" viewBox="0 0 163 48"><defs><linearGradient id="a" x1="26.06" y1="12.15" x2="26.06" y2="0.08" gradientTransform="matrix(1, 0, 0, -1, 0, 47.89)" gradientUnits="userSpaceOnUse"><stop offset="0" stop-color="#5553ff"/><stop offset="0.12" stop-color="#6055f6"/><stop offset="0.33" stop-color="#7e5bdd"/><stop offset="0.6" stop-color="#ae65b5"/><stop offset="0.93" stop-color="#f0727e"/><stop offset="1" stop-color="#ff7571"/></linearGradient><linearGradient id="b" x1="26.05" y1="42.71" x2="26.05" y2="4.17" gradientTransform="matrix(1, 0, 0, -1, 0, 47.89)" gradientUnits="userSpaceOnUse"><stop offset="0" stop-color="#ff6632"/><stop offset="0.14" stop-color="#ff693d"/><stop offset="0.37" stop-color="#ff715b"/><stop offset="0.67" stop-color="#ff7e8b"/><stop offset="1" stop-color="#ff8fc7"/></linearGradient><linearGradient id="c" x1="26.06" y1="25.51" x2="26.06" y2="3.07" xlink:href="#a"/><linearGradient id="d" x1="26.06" y1="17.02" x2="26.06" y2="0.1" gradientTransform="matrix(1, 0, 0, -1, 0, 47.89)" gradientUnits="userSpaceOnUse"><stop offset="0" stop-color="#5553ff"/><stop offset="0.19" stop-color="#805bdb"/><stop offset="0.46" stop-color="#b666ae"/><stop offset="0.7" stop-color="#de6e8d"/><stop offset="0.89" stop-color="#f67378"/><stop offset="1" stop-color="#ff7571"/></linearGradient><linearGradient id="e" x1="26.05" y1="47.56" x2="26.05" y2="9.02" xlink:href="#b"/><linearGradient id="f" x1="26.06" y1="30.38" x2="26.06" y2="7.94" xlink:href="#d"/></defs><g style="opacity:0.9900000095367432"><path d="M51.28,35.74V39c0,.26,0,.52-.05.78a9.15,9.15,0,0,1-1.67,4.31,10.09,10.09,0,0,1-.78,1,9,9,0,0,1-2.19,1.69l-.25.13a9.22,9.22,0,0,1-8.07,0,9,9,0,0,1-3.48-3,10.45,10.45,0,0,0-8.73-4.62c-8.33.37-7.4,5.57-12.71,7.89a9.51,9.51,0,0,1-1,.36,9.18,9.18,0,0,1-6.53-.62l-.26-.13-.22-.12a7.84,7.84,0,0,1-.74-.48l-.28-.21A9.13,9.13,0,0,1,.84,39V36.22c0,.06,0,.14,0,.21v.13a.41.41,0,0,0,0,.11.12.12,0,0,0,0,.08v.08c0,.05,0,.09,0,.15a.7.7,0,0,0,0,.14c0,.06,0,.11,0,.16l0,.24a1.29,1.29,0,0,1,0,.19s0,0,0,.09,0,0,0,0v0a.08.08,0,0,0,0,0s0,0,0,0,0,.05,0,.08a.2.2,0,0,1,0,0l0,0s0,0,0,0v0h0a.26.26,0,0,0,0,.08.5.5,0,0,1,0,.12l.06.19a1.34,1.34,0,0,0,.09.26s0,0,0,.06,0,0,0,.05h0v0s0,.05,0,.08.06.14.1.21a.24.24,0,0,1,0,.08c.06.12.11.24.16.35A9.5,9.5,0,0,0,2.45,41c.15.21.31.41.48.61l.25.3.18.18a8,8,0,0,0,.86.78l.24.18,0,0,.46.31.18.12.1.05,0,0,.18.1.1.06.05,0,.08,0,.08,0s0,0,0,0l.12.05S6,44,6,44l.06,0,.07,0,.15.07a2,2,0,0,0,.22.09l.12,0,.22.08h0l.15,0H7l.23.07.25.07.14,0,.15,0,.07,0h.19l.1,0h.08l.07,0,.6.08h1.72l.16,0h0l.3,0h0l.13,0a.7.7,0,0,1,.14,0h.09l.07,0h0l.1,0a1.81,1.81,0,0,0,.27-.06l.07,0,.13,0,.13,0h.06a.47.47,0,0,0,.09,0h.05s.06,0,.07,0h0l.13,0h0l.13,0a.84.84,0,0,0,.14-.06l.06,0,.23-.1.15-.06.14-.07.14-.07.13-.06s0,0,0,0l.23-.12.17-.09a.07.07,0,0,1,0,0h0s0,0,0,0l0,0,.06,0,.07,0,0,0,.12-.08.13-.1L15.1,43h0l.06-.05c.07-.06.14-.1.19-.15a.94.94,0,0,1,.12-.09l.11-.1.16-.14a3.57,3.57,0,0,1,.28-.27l0,0,.08-.08.1-.09c.1-.11.21-.23.32-.33l.14-.16c.07-.08.14-.15.2-.23s.32-.37.47-.56l.2-.24.52-.63a.94.94,0,0,0,.09-.12l0,0,.11-.13.05,0c0-.06.1-.1.14-.15l.12-.13a.67.67,0,0,1,.14-.15l.15-.15.17-.17s0,0,.06,0a.41.41,0,0,1,.1-.09l.06,0c.05-.06.12-.11.17-.16l.11-.1,0,0,.06-.06a.44.44,0,0,0,.11-.09s.05,0,.07,0L20,38l.24-.17.38-.25.24-.15h0a.46.46,0,0,1,.14-.07s.06,0,.1-.05,0,0,0,0l.08,0,.11-.05.1,0,0,0,.1,0,.3-.12.1,0,.08,0s.05,0,.08,0l.21-.07.08,0a.23.23,0,0,1,.11,0,.47.47,0,0,0,.09,0l.11,0,0,0h.1a.29.29,0,0,1,.1,0l.14,0,.14,0,.38-.08h.07l.19,0H24l.11,0h.11a1.18,1.18,0,0,1,.21,0h.11a1.13,1.13,0,0,0,.18,0c.4,0,.83-.08,1.27-.1h.55l.68.05.13,0h.27a.61.61,0,0,0,.13,0h.07l.09,0,.11,0,.05,0h.08l.31.07h.1s0,0,0,0h.08l.19.06H29l.1,0,.11,0,.11,0,.21.08.09,0h0l.09,0,.11,0s0,0,.05,0l.24.09.15.07,0,0s0,0,0,0l.07,0,0,0,.16.08.12.05.14.08c.15.07.28.15.42.23l.09.05.13.08.1.07s0,0,.05,0l.23.14.22.16.12.1.08.05.11.08s.07,0,.09.08.05,0,.07.05.05,0,.08.07,0,0,.05,0L33,39l.1.09,0,0c.18.16.34.33.51.5s.09.1.13.15.06,0,.07.08l.07.08,0,0,0,0,.1.12c.14.17.28.35.4.52s0,.07.07.09,0,0,0,0l.09.15.35.48a8.32,8.32,0,0,0,.68.77,8.6,8.6,0,0,0,2.46,1.78c.27.13.54.25.82.36l.24.08a7.7,7.7,0,0,0,1,.26.5.5,0,0,0,.13,0l.69.11.31,0c.32,0,.63,0,1,0H43a.25.25,0,0,0,.12,0h.12l.37,0,.1,0,.21,0H44a.23.23,0,0,0,.11,0h.08l.18,0h0l.07,0a2.54,2.54,0,0,0,.37-.1l.08,0h0l.35-.12s0,0,0,0a4.55,4.55,0,0,0,.51-.21L46,44,46,44s0,0,.07,0l.16-.08h0l.16-.08a.24.24,0,0,0,.08-.06.53.53,0,0,0,.15-.08l.12-.06.32-.2.13-.1.28-.2.06,0L47.7,43s.08-.05.1-.09l.15-.12.13-.11s0,0,0,0l0,0,.08-.06a.34.34,0,0,0,.06-.06l.09-.09,0,0,.07-.06a.36.36,0,0,0,.08-.09l.12-.12.28-.32s0,0,0-.07,0,0,.07-.08a.94.94,0,0,0,.09-.12l.16-.2a1.25,1.25,0,0,0,.12-.17,3.18,3.18,0,0,0,.28-.43l.1-.14,0-.06c0-.08.1-.14.14-.22s.13-.23.18-.35a1.51,1.51,0,0,1,.1-.17l0-.08,0-.08,0-.08,0-.08.06-.16c0-.06,0-.11.07-.16a1,1,0,0,0,.09-.26l.1-.25s0,0,0,0,0,0,0,0l0,0h0s0,0,0,0l0-.13,0-.14a.41.41,0,0,1,0-.08h0a.5.5,0,0,0,0-.12s0,0,0,0a.06.06,0,0,1,0,0,.61.61,0,0,0,0-.13,1,1,0,0,0,0-.15h0l0-.06a.78.78,0,0,0,0-.16.76.76,0,0,0,0-.16v0s0-.08,0-.12a1,1,0,0,0,0-.24c0-.17,0-.34,0-.52s0-.17,0-.25A.46.46,0,0,0,51.28,35.74Z" style="isolation:isolate;opacity:0.9900000095367432;fill:url(#a)"/><g style="opacity:0.9900000095367432"><path d="M51.28,35.74a8.71,8.71,0,0,1-.05,1,9.38,9.38,0,0,1-.85,2.94,9.54,9.54,0,0,1-.82,1.37,8.86,8.86,0,0,1-3,2.64L33.29,26a9,9,0,0,0-14.43,0L5.53,43.72,5.3,43.6a5.74,5.74,0,0,1-.73-.48,2.55,2.55,0,0,1-.28-.21,9.17,9.17,0,0,1-2.56-3.2c-.05-.12-.11-.24-.16-.35a9.38,9.38,0,0,1-.75-3.61,8.86,8.86,0,0,1,1.83-5.36l16.2-21.6a9,9,0,0,1,14.42,0l16.2,21.6A8.73,8.73,0,0,1,51.28,35.74Z" style="isolation:isolate;opacity:0.9900000095367432;fill:url(#b)"/><path d="M46.58,43.72a9.14,9.14,0,0,1-8.32.16,9,9,0,0,1-3.48-3,10.43,10.43,0,0,0-8.73-4.63c-8.33.37-7.4,5.57-12.71,7.89a6.52,6.52,0,0,1-1,.36,9.15,9.15,0,0,1-6.79-.74L18.84,26a9,9,0,0,1,14.42,0Z" style="isolation:isolate;opacity:0.9900000095367432;fill:url(#c)"/></g></g><g style="opacity:0.699999988079071"><path d="M51.28,30.87V39c0,.27,0,.52-.05.79a9.15,9.15,0,0,1-1.67,4.31,8.84,8.84,0,0,1-.78.94,8.74,8.74,0,0,1-2.19,1.69,1.57,1.57,0,0,1-.25.14,9.22,9.22,0,0,1-8.07,0,9,9,0,0,1-3.48-3,10.46,10.46,0,0,0-8.73-4.63c-8.33.38-7.4,5.57-12.71,7.89a6.52,6.52,0,0,1-1,.36,9.18,9.18,0,0,1-6.53-.61l-.26-.13-.22-.12a7.84,7.84,0,0,1-.74-.48l-.28-.22a9.26,9.26,0,0,1-2.72-3.54A9.13,9.13,0,0,1,.84,39V31.36c0,.11,0,.22,0,.32s0,.07,0,.11,0,.09,0,.13A.17.17,0,0,0,.9,32v.08s0,0,0,.08,0,.05,0,.08,0,0,0,.05a.49.49,0,0,1,0,.14c0,.13.05.25.08.38a.7.7,0,0,1,0,.14v0s0,.07,0,.11,0,0,0,.07a.5.5,0,0,1,0,.12s0,0,0,.05h0s0,.06,0,.08a.74.74,0,0,1,0,.14s0,.05,0,.09a.47.47,0,0,1,0,.09c0,.06,0,.11.05.18s0,0,0,.06v0h0v0s0,0,0,0,0,0,0,0,.06.18.1.28l0,.1c.06.12.11.24.16.35l.1.2v0l.24.43.07.1,0,.1h0a1.21,1.21,0,0,0,.14.2l.06.09s0,.07.07.1,0,.06.07.09l.06.09.11.15.11.13v0l.11.13h0a.61.61,0,0,1,.1.14l0,0,0,0s0,0,0,0l0,0,.12.13,0,0,.09.09,0,0,0,0,.12.12.08.06,0,.06.09.09,0,0,0,0,.06.07.1.08.2.16a1.92,1.92,0,0,0,.21.16s0,0,.07.05a2.14,2.14,0,0,0,.26.19l.1.07a3.6,3.6,0,0,0,.37.22s0,0,0,0l.19.11.14.08s0,0,0,0l.13.07.2.1.21.1.11,0,.11,0,.1,0,.11,0,.16,0,.08,0,.08,0,.07,0h.06a.23.23,0,0,0,.11,0l.24.07.2.05s.07,0,.09,0a4.94,4.94,0,0,0,.53.1.7.7,0,0,0,.14,0h.09l.12,0h0l.23,0H9l.13,0H10.7l.12,0h.29a.1.1,0,0,0,.07,0h.27l.06,0,.15,0h0s0,0,.06,0h.12a.53.53,0,0,0,.12,0l.29-.08a6.63,6.63,0,0,0,1-.36,9.17,9.17,0,0,0,3-2.08l.36-.38.28-.32c0-.06.09-.11.13-.16s.1-.11.14-.16l.2-.24c0-.06.09-.11.13-.16s.09-.11.13-.16l.27-.32c.33-.4.67-.79,1-1.16l.08-.08c1.4-1.4,3.28-2.52,7-2.7a10.45,10.45,0,0,1,7.43,3.06l.34.36a9.57,9.57,0,0,1,1,1.21l.35.48a8.32,8.32,0,0,0,.68.77A8.6,8.6,0,0,0,38.2,39l.12.06.06,0,0,0,.06,0a0,0,0,0,1,0,0l.08,0,.05,0,.09,0,.07,0h0s0,0,.05,0l.08,0,.11,0h0l.22.08.09,0,.11,0,.06,0h.07l.11,0,.22.05.19,0h0l.25,0,.37.07.19,0,.24,0h.19l.17,0H43a.2.2,0,0,0,.11,0h.38a.1.1,0,0,0,.07,0h.17l.22,0h0a0,0,0,0,0,0,0h.13a.49.49,0,0,1,.14,0h0l.05,0,.23,0h0l.14,0h0l0,0,.11,0,0,0h0a.53.53,0,0,0,.15,0l.12,0,.12,0a.13.13,0,0,1,.08,0l.09,0a2,2,0,0,0,.22-.09s.08,0,.1-.06l.08,0,.08,0,.46-.24.14-.08a8.41,8.41,0,0,0,1.92-1.48l.12-.12a.5.5,0,0,1,.11-.1l.2-.23c.13-.16.27-.32.39-.48a.94.94,0,0,1,.09-.12,1,1,0,0,0,.09-.13,1.05,1.05,0,0,0,.07-.11s0-.07.07-.09l.13-.22a.16.16,0,0,0,.05-.09s0,0,0,0a0,0,0,0,1,0,0,.93.93,0,0,0,.05-.1h0s0,0,0,0,0,0,0,0l0-.08v0a.21.21,0,0,1,0-.06l.08-.16a1.17,1.17,0,0,1,0-.11s0,0,0,0,0,0,0,0l0-.09s0,0,0-.07l0-.08s0-.08,0-.13,0,0,0,0a.84.84,0,0,0,.06-.14s0,0,0,0,0-.11.07-.16l0-.07s0,0,0-.08a.41.41,0,0,1,0-.08c0-.06,0-.13.06-.18s0,0,0,0,0-.06,0-.08,0,0,0-.06,0-.12,0-.17v0a1,1,0,0,0,0-.17s0,0,0,0a.73.73,0,0,1,0-.2.45.45,0,0,1,0-.11s0,0,0-.06,0,0,0,0,0-.05,0-.08a.88.88,0,0,0,0-.17,1,1,0,0,0,0-.15v0s0-.08,0-.12a1,1,0,0,0,0-.24l0-.52c0-.08,0-.17,0-.25A.28.28,0,0,0,51.28,30.87Z" style="isolation:isolate;opacity:0.699999988079071;fill:url(#d)"/><g style="opacity:0.699999988079071"><path d="M51.28,30.87a8.88,8.88,0,0,1-.05,1,9.4,9.4,0,0,1-.85,2.93,9.54,9.54,0,0,1-.82,1.37,7.17,7.17,0,0,1-.78.95,8.74,8.74,0,0,1-2.19,1.69L33.29,21.1a9,9,0,0,0-14.43,0L5.53,38.87l-.23-.12c-.25-.15-.5-.31-.73-.48s-.19-.13-.28-.21a9.26,9.26,0,0,1-2.56-3.2c-.05-.12-.11-.24-.16-.35A9.38,9.38,0,0,1,.82,30.9a8.86,8.86,0,0,1,1.83-5.36l16.2-21.6a9,9,0,0,1,14.42,0l16.2,21.6A8.71,8.71,0,0,1,51.28,30.87Z" style="isolation:isolate;opacity:0.699999988079071;fill:url(#e)"/><path d="M46.58,38.86a9.17,9.17,0,0,1-8.32.16,9,9,0,0,1-3.48-3,10.46,10.46,0,0,0-8.73-4.63c-8.33.38-7.4,5.58-12.71,7.9a9.51,9.51,0,0,1-1,.36,9.2,9.2,0,0,1-6.79-.75L18.84,21.12a9,9,0,0,1,14.42,0Z" style="isolation:isolate;opacity:0.699999988079071;fill:url(#f)"/></g></g><path d="M77.77,8.66l0-.11H70.32a.17.17,0,0,0-.16.12L61.47,36.52a.18.18,0,0,0,.16.23h5.21a.15.15,0,0,0,.16-.12l1.91-6.28a.18.18,0,0,1,.16-.12h9.78a.15.15,0,0,1,.16.12l1.91,6.28a.18.18,0,0,0,.16.12h5.21a.17.17,0,0,0,.16-.23Zm-4.65,7.53a.89.89,0,0,1,1.7,0c.62,2.27,1.18,4.26,1.85,6.44l.86,2.84a.18.18,0,0,1-.16.23H70.58a.17.17,0,0,1-.16-.23l.86-2.84C71.92,20.41,72.51,18.35,73.12,16.19Z" style="fill:#1d1d1b"/><path d="M96.48,36.58l-.11,0a9.94,9.94,0,0,1-3,.42c-3.52,0-5.14-1.74-5.14-5.5V8.74a.18.18,0,0,1,.17-.17h4.73a.18.18,0,0,1,.18.17V31.11a1.85,1.85,0,0,0,.46,1.41c.43.38,1.15.46,2.43.27l.16,0Z" style="fill:#1d1d1b"/><path d="M116.5,17.69a7.68,7.68,0,0,0-6.48-3.1,6.37,6.37,0,0,0-5.85,2.86.18.18,0,0,1-.32-.1V15.3a.18.18,0,0,0-.18-.17H98.93a.18.18,0,0,0-.17.17V44.47a.18.18,0,0,0,.17.17h4.73a.18.18,0,0,0,.18-.17V35.11a.17.17,0,0,1,.3-.11,6.68,6.68,0,0,0,5.43,2.31c5.6,0,9.08-4.44,9.08-11.57A13.44,13.44,0,0,0,116.5,17.69Zm-8,15.41A4.49,4.49,0,0,1,104.16,30a3.8,3.8,0,0,1-.31-1.57v-5a3.84,3.84,0,0,1,.27-1.45,4.65,4.65,0,0,1,4.52-3.24c3.85,0,4.66,3.85,4.66,7.08C113.3,30.46,111.57,33.1,108.53,33.1Z" style="fill:#1d1d1b"/><path d="M139.78,22.63v14a.18.18,0,0,1-.17.17h-4.73a.18.18,0,0,1-.18-.17V22.75c0-2.62-1-3.74-3.3-3.74-2.7,0-4.5,1.73-5.36,5.15V36.58a.18.18,0,0,1-.18.17h-4.73a.18.18,0,0,1-.17-.17V8.73a.18.18,0,0,1,.17-.18h4.73a.18.18,0,0,1,.18.18v8.72a.17.17,0,0,0,.32.09,6.93,6.93,0,0,1,6.15-3,7.1,7.1,0,0,1,5.42,2C139.15,17.89,139.78,19.93,139.78,22.63Z" style="fill:#1d1d1b"/><path d="M162.39,32.86l-.16,0a2.23,2.23,0,0,1-1.81-.22,2.18,2.18,0,0,1-.5-1.71V22.72c0-2.69-.73-4.74-2.17-6.09s-3.67-2-6.59-2a10,10,0,0,0-6.26,1.75,7.19,7.19,0,0,0-2.66,5v.15l4.91.65V22c.31-2.43,1.45-3.43,3.95-3.43,2.77,0,4,1.32,4,4.29v2.23a.18.18,0,0,1-.24.16,11.68,11.68,0,0,0-5.06-1c-5.26,0-8.29,2.34-8.29,6.42a6.21,6.21,0,0,0,2,4.78,7.94,7.94,0,0,0,5.41,1.8c2.88,0,5-.85,6.32-2.48a.18.18,0,0,1,.3,0c.61,1.48,1.94,2.2,4,2.2a8,8,0,0,0,2.81-.46l.11,0ZM155.1,29V31.4a.21.21,0,0,1,0,.12,5.86,5.86,0,0,1-4.72,1.95c-1.66,0-3.63-.51-3.63-2.79,0-1.9,1.24-2.76,4-2.77h.12a9,9,0,0,1,4.16.92S155.1,28.91,155.1,29Z" style="fill:#1d1d1b"/></svg>